<svg width="92" height="16" viewBox="0 0 92 16" fill="none" xmlns="http://www.w3.org/2000/svg">
<path d="M7.62284 0L9.6391 4.84768L14.8726 5.26725L10.8852 8.68285L12.1034 13.7898L7.62284 11.0531L3.14225 13.7898L4.36045 8.68285L0.373088 5.26725L5.60657 4.84768L7.62284 0Z" fill="#43916F"/>
<path d="M26.6795 0L28.6957 4.84768L33.9292 5.26725L29.9419 8.68285L31.1601 13.7898L26.6795 11.0531L22.1989 13.7898L23.4171 8.68285L19.4297 5.26725L24.6632 4.84768L26.6795 0Z" fill="#43916F"/>
<path d="M45.7371 0L47.7534 4.84768L52.9868 5.26725L48.9995 8.68285L50.2177 13.7898L45.7371 11.0531L41.2565 13.7898L42.4747 8.68285L38.4873 5.26725L43.7208 4.84768L45.7371 0Z" fill="#43916F"/>
<path d="M64.7937 0L66.81 4.84768L72.0435 5.26725L68.0561 8.68285L69.2743 13.7898L64.7937 11.0531L60.3131 13.7898L61.5313 8.68285L57.544 5.26725L62.7775 4.84768L64.7937 0Z" fill="#43916F"/>
<path d="M83.8514 0L85.8676 4.84768L91.1011 5.26725L87.1137 8.68285L88.3319 13.7898L83.8514 11.0531L79.3708 13.7898L80.589 8.68285L76.6016 5.26725L81.8351 4.84768L83.8514 0Z" fill="#43916F"/>
</svg>
